<?xml version="1.0" encoding="UTF-8"?>
<svg id="Layer_1" data-name="Layer 1" xmlns="http://www.w3.org/2000/svg" viewBox="0 0 800.3 800.29">
  <defs>
    <style>
      .cls-1 {
        fill: #fff;
        fill-rule: evenodd;
      }
    </style>
  </defs>
  <path class="cls-1" d="M681.74,199.28c83.77,113.72,95.65,263.77,35.7,387.82,22.19,31.04,43.92,62.17,64.95,93.24,1.35,2,1.92,2.79,2.54,3.67,6.16,8.65,14.83,20.81,15.34,32.33,.22,4.9-1.17,10.27-3.63,15.16-2.03,4.03-4.95,8.09-8.32,11.4-2.95,2.89-11.55,8.46-19.84,13.27-8.44,4.89-17.63,9.55-21.52,10.49-6.03,1.46-11.48,.51-16.34-1.67-3.51-1.57-6.39-3.66-8.79-5.7l-79.35-67.66c-147.57,145.51-385.14,144.89-531.92-1.89-146.78-146.78-147.4-384.35-1.89-531.92L41.01,78.47c-2.04-2.39-4.13-5.28-5.7-8.79-2.17-4.85-3.12-10.3-1.67-16.34,.94-3.89,5.6-13.08,10.49-21.53,4.8-8.3,10.37-16.89,13.26-19.84,3.31-3.37,7.37-6.3,11.4-8.32C73.7,1.19,79.06-.2,83.97,.02c11.52,.52,23.68,9.18,32.33,15.34,.88,.63,1.7,1.21,3.67,2.54,31.06,21.02,62.19,42.75,93.24,64.95,124.05-59.95,274.1-48.06,387.82,35.7,1.61-1.21,3.22-2.41,4.82-3.57,8.66-6.3,17.33-11.89,25.22-15.8,8.13-4.04,24.27-9.69,38.54-10.96,12.69-1.13,24.79,1.08,32.88,9.59,8.51,8.09,10.72,20.2,9.59,32.88-1.27,14.27-6.92,30.41-10.96,38.54-3.91,7.89-9.5,16.56-15.8,25.22-1.17,1.61-2.36,3.22-3.57,4.82m-201.18,120.46c56.93,56.93,56.93,149.22,0,206.15-56.93,56.93-149.22,56.93-206.15,0-56.93-56.93-56.93-149.22,0-206.15,56.93-56.93,149.22-56.93,206.15,0Zm-109.89-53.35c-40.14-.97-80.41,12.57-112.27,40.68L54.01,67.35c-2.35-2.75-4.65-6.28-3.75-9.99,1.09-4.51,15.61-29.6,19.34-33.4,3.96-4.04,9.78-7.03,13.64-6.86,7.82,.35,20.52,10.51,27.15,15,83.67,56.62,167.49,118.17,248.63,179.83,15.41-13.69,30.98-25.75,46.84-34.79l2.16,2.16,8.37-4.27-27.82-27.82c-2.06-2.06-2.06-5.41,0-7.47,2.06-2.06,5.41-2.06,7.47,0l30.25,30.25,2.97-1.51,3.38,3.38,3.38,3.38-1.51,2.97,30.25,30.25c2.06,2.06,2.06,5.41,0,7.47-2.06,2.06-5.41,2.06-7.47,0l-27.82-27.82-4.27,8.37,2.16,2.16c-8.12,14.23-18.66,28.23-30.63,42.09,19.26,14.78,38.34,29.52,57.2,44.17l110.55-111.91c.31-.32,.64-.65,.99-1,1.65-3.59,4.36-7.44,7.92-10.99,4.48-4.48,9.42-7.6,13.71-8.98,16.04-13.96,36.25-29.9,51.56-37.49,11.63-5.77,42.29-15.41,51.76-4.62,10.79,9.48,1.15,40.13-4.62,51.76-7.6,15.31-23.54,35.52-37.49,51.56-1.38,4.29-4.51,9.23-8.98,13.71-3.56,3.56-7.41,6.26-10.99,7.92-.35,.34-.68,.68-1,.99l-111.91,110.55c14.64,18.86,29.38,37.94,44.17,57.2,13.86-11.97,27.86-22.52,42.09-30.63l2.16,2.16,8.38-4.27-27.82-27.82c-2.06-2.06-2.06-5.41,0-7.47,2.06-2.06,5.41-2.06,7.47,0l30.25,30.25,2.97-1.51,3.38,3.38,3.38,3.38-1.51,2.97,30.25,30.25c2.06,2.06,2.06,5.41,0,7.47-2.06,2.06-5.41,2.06-7.47,0l-27.82-27.82-4.27,8.38,2.16,2.16c-9.05,15.86-21.1,31.43-34.79,46.84,61.66,81.14,123.21,164.96,179.83,248.63,4.49,6.63,14.65,19.33,15,27.15,.17,3.86-2.82,9.67-6.86,13.64-3.8,3.72-28.88,18.24-33.4,19.34-3.71,.89-7.23-1.41-9.99-3.75l-239.72-204.39c28.11-31.86,41.65-72.14,40.68-112.27,1.83-42.31-13.4-85.22-45.71-117.53-32.31-32.31-75.22-47.54-117.53-45.71Zm-131.11,333.48l37.94,45.35c11.99,14.55,35.51,42.49,37.93,45.07,.61,.65,5.05,5.25,6.51,6.87,1.62,2.72,2,4.06,1.21,6.72-7.8,26.57-10.53,31.45-25.44,45.54-9.98,9.43-17.78,13.84-19.55,11.05l-119.16-119.18-119.18-119.16c-2.79-1.76,1.62-9.57,11.05-19.55,14.09-14.91,18.97-17.64,45.54-25.44,2.66-.78,4-.4,6.72,1.21,1.62,1.46,6.23,5.9,6.87,6.51,2.57,2.42,30.52,25.94,45.07,37.93l45.35,37.94c9.63-13.4,30.88-40.72,43.11-56.79,6.39,10.53,14.13,20.48,23.23,29.58,9.1,9.1,19.05,16.84,29.58,23.23-16.07,12.23-43.39,33.48-56.79,43.11Z"/>
</svg>