<?xml version="1.0" encoding="UTF-8" standalone="no" ?>
<!DOCTYPE svg PUBLIC "-//W3C//DTD SVG 1.1//EN" "http://www.w3.org/Graphics/SVG/1.1/DTD/svg11.dtd">
<svg xmlns="http://www.w3.org/2000/svg" xmlns:xlink="http://www.w3.org/1999/xlink" version="1.1" width="1080" height="1080" viewBox="0 0 1080 1080" xml:space="preserve">
<defs>
</defs>
<g transform="matrix(1 0 0 1 540 540)" id="35c0db10-5b53-45ee-ac29-308869620702"  >
<rect style="stroke: none; stroke-width: 1; stroke-dasharray: none; stroke-linecap: butt; stroke-dashoffset: 0; stroke-linejoin: miter; stroke-miterlimit: 4; fill: rgb(255,255,255); fill-rule: nonzero; opacity: 1; visibility: hidden;" vector-effect="non-scaling-stroke"  x="-540" y="-540" rx="0" ry="0" width="1080" height="1080" />
</g>
<g transform="matrix(1 0 0 1 540 540)" id="42948fa9-0eac-4402-b0ed-07fa7c4fd1df"  >
</g>
<g transform="matrix(1 0 0 1 540 540)"  >
<g style="" vector-effect="non-scaling-stroke"   >
		<g transform="matrix(0.13 0 0 -0.13 -498.02 -4.47)"  >
<path style="stroke: none; stroke-width: 1; stroke-dasharray: none; stroke-linecap: butt; stroke-dashoffset: 0; stroke-linejoin: miter; stroke-miterlimit: 4; fill: rgb(255,255,255); fill-rule: nonzero; opacity: 1;" vector-effect="non-scaling-stroke"  transform=" translate(-1424.49, -1404.99)" d="M 313 2734 C 264 2709 183 2576 195 2539 C 199 2528 255 2456 321 2379 C 386 2302 440 2232 440 2223 C 440 2215 418 2182 392 2151 C 207 1936 100 1671 84 1385 C 62 1005 240 605 541 356 C 699 226 864 143 1067 93 C 1162 69 1195 66 1340 65 C 1518 65 1607 78 1750 127 C 1902 179 2122 309 2199 394 C 2213 408 2231 420 2241 420 C 2250 420 2322 366 2400 300 C 2477 234 2552 177 2564 174 C 2590 168 2629 185 2697 232 C 2749 267 2774 310 2765 349 C 2760 374 2681 494 2531 707 L 2487 768 L 2522 857 C 2625 1114 2643 1370 2576 1633 C 2540 1775 2500 1863 2385 2055 L 2367 2086 L 2404 2142 C 2473 2246 2490 2355 2444 2409 C 2395 2467 2293 2460 2177 2390 C 2141 2368 2107 2350 2102 2350 C 2096 2350 2068 2366 2039 2386 C 1843 2518 1594 2591 1346 2591 C 1166 2591 1016 2559 823 2479 C 792 2466 789 2467 703 2527 C 507 2664 392 2739 369 2744 C 356 2747 331 2743 313 2734 z M 497 2613 C 649 2510 950 2293 1144 2147 L 1284 2042 L 1356 2097 C 1421 2146 1442 2157 1475 2159 C 1480 2160 1460 2185 1430 2215 C 1387 2258 1378 2272 1388 2282 C 1398 2292 1412 2282 1458 2238 C 1489 2208 1524 2180 1534 2176 C 1544 2173 1550 2167 1546 2163 C 1542 2159 1565 2130 1597 2098 C 1642 2053 1652 2038 1642 2028 C 1632 2018 1619 2026 1580 2065 C 1532 2112 1519 2116 1514 2085 C 1513 2077 1491 2040 1465 2004 C 1439 1968 1420 1938 1422 1936 C 1423 1935 1464 1904 1512 1867 C 1560 1830 1603 1800 1608 1800 C 1614 1800 1701 1886 1802 1992 C 2034 2235 2021 2223 2124 2299 C 2246 2389 2364 2425 2404 2384 C 2430 2359 2424 2284 2391 2215 C 2347 2121 2282 2045 2041 1806 L 1816 1583 L 1884 1497 C 1921 1449 1955 1408 1960 1405 C 1965 1402 1993 1418 2022 1440 C 2051 1462 2090 1485 2109 1491 L 2142 1502 L 2089 1556 C 2047 1598 2038 1612 2048 1622 C 2058 1632 2072 1622 2118 1578 C 2149 1548 2183 1520 2193 1517 C 2202 1513 2210 1505 2210 1497 C 2210 1490 2232 1462 2260 1435 C 2287 1408 2310 1380 2310 1373 C 2310 1348 2284 1360 2240 1405 C 2193 1453 2180 1459 2180 1434 C 2180 1417 2134 1346 2090 1296 L 2061 1264 L 2097 1219 C 2254 1022 2707 382 2716 343 C 2724 311 2687 271 2621 240 C 2578 220 2569 219 2553 231 C 2542 239 2355 398 2137 584 C 1752 912 1740 924 1755 944 C 1797 1002 1832 1072 1851 1134 C 1877 1216 1881 1367 1861 1450 C 1828 1585 1721 1725 1604 1787 C 1503 1841 1443 1853 1306 1848 C 1168 1842 1086 1817 997 1754 C 949 1719 947 1719 930 1737 C 887 1781 247 2536 243 2547 C 240 2554 252 2584 270 2615 C 301 2669 333 2700 357 2700 C 364 2700 427 2661 497 2613 z M 1452 1809 C 1581 1782 1721 1678 1782 1564 C 1858 1422 1860 1247 1785 1101 C 1753 1036 1662 938 1604 904 C 1326 741 971 877 879 1182 C 861 1240 858 1270 862 1355 C 866 1446 870 1465 902 1531 C 1003 1744 1225 1856 1452 1809 z M 575 1010 C 667 933 745 870 749 870 C 752 870 786 910 823 959 L 891 1048 L 978 961 C 1079 862 1080 873 966 790 C 924 760 890 732 890 729 C 890 726 953 648 1030 556 L 1171 388 L 1154 337 C 1138 288 1076 209 1037 188 C 1020 179 970 225 614 581 C 360 835 210 992 210 1004 C 210 1035 298 1113 355 1132 C 383 1141 406 1149 407 1149 C 408 1150 484 1087 575 1010 z" stroke-linecap="round" />
</g>
		<g transform="matrix(0.13 0 0 -0.13 24.94 -23.15)"  >
<path style="stroke: none; stroke-width: 1; stroke-dasharray: none; stroke-linecap: butt; stroke-dashoffset: 0; stroke-linejoin: miter; stroke-miterlimit: 4; fill: rgb(255,255,255); fill-rule: nonzero; opacity: 1;" vector-effect="non-scaling-stroke"  transform=" translate(-5314.99, -1565)" d="M 5256 2094 C 5242 2080 5240 2019 5240 1566 C 5240 988 5235 1020 5317 1020 C 5394 1020 5390 992 5390 1568 C 5390 2142 5394 2110 5315 2110 C 5289 2110 5265 2104 5256 2094 z" stroke-linecap="round" />
</g>
		<g transform="matrix(0.13 0 0 -0.13 444.94 -23.15)"  >
<path style="stroke: none; stroke-width: 1; stroke-dasharray: none; stroke-linecap: butt; stroke-dashoffset: 0; stroke-linejoin: miter; stroke-miterlimit: 4; fill: rgb(255,255,255); fill-rule: nonzero; opacity: 1;" vector-effect="non-scaling-stroke"  transform=" translate(-8464.99, -1565)" d="M 8406 2094 C 8392 2080 8390 2019 8390 1566 C 8390 988 8385 1020 8467 1020 C 8544 1020 8540 992 8540 1568 C 8540 2142 8544 2110 8465 2110 C 8439 2110 8415 2104 8406 2094 z" stroke-linecap="round" />
</g>
		<g transform="matrix(0.13 0 0 -0.13 -176.26 -74.84)"  >
<path style="stroke: none; stroke-width: 1; stroke-dasharray: none; stroke-linecap: butt; stroke-dashoffset: 0; stroke-linejoin: miter; stroke-miterlimit: 4; fill: rgb(255,255,255); fill-rule: nonzero; opacity: 1;" vector-effect="non-scaling-stroke"  transform=" translate(-3806.27, -1964.43)" d="M 3773 2030 C 3761 2025 3744 2010 3734 1995 C 3720 1974 3720 1965 3730 1940 C 3745 1903 3767 1890 3813 1890 C 3893 1890 3919 1989 3849 2025 C 3817 2042 3805 2043 3773 2030 z" stroke-linecap="round" />
</g>
		<g transform="matrix(0.13 0 0 -0.13 484.21 -74.62)"  >
<path style="stroke: none; stroke-width: 1; stroke-dasharray: none; stroke-linecap: butt; stroke-dashoffset: 0; stroke-linejoin: miter; stroke-miterlimit: 4; fill: rgb(255,255,255); fill-rule: nonzero; opacity: 1;" vector-effect="non-scaling-stroke"  transform=" translate(-8759.65, -1962.79)" d="M 8725 2029 C 8675 2000 8665 1947 8703 1912 C 8733 1883 8792 1882 8820 1910 C 8845 1935 8846 1991 8822 2013 C 8798 2035 8750 2043 8725 2029 z" stroke-linecap="round" />
</g>
		<g transform="matrix(0.13 0 0 -0.13 -241.09 5.18)"  >
<path style="stroke: none; stroke-width: 1; stroke-dasharray: none; stroke-linecap: butt; stroke-dashoffset: 0; stroke-linejoin: miter; stroke-miterlimit: 4; fill: rgb(255,255,255); fill-rule: nonzero; opacity: 1;" vector-effect="non-scaling-stroke"  transform=" translate(-3324.74, -1357.31)" d="M 3205 1696 C 3103 1664 3077 1634 3105 1580 C 3123 1546 3142 1543 3191 1567 C 3210 1577 3254 1586 3290 1588 C 3392 1593 3442 1550 3456 1447 L 3462 1403 L 3354 1397 C 3131 1384 3050 1327 3050 1185 C 3050 1133 3080 1068 3116 1043 C 3179 998 3274 992 3345 1027 C 3362 1036 3394 1058 3417 1076 C 3440 1095 3461 1110 3464 1110 C 3467 1110 3470 1095 3470 1077 C 3470 1035 3485 1020 3530 1020 C 3603 1020 3602 1017 3598 1285 C 3595 1556 3591 1571 3511 1643 C 3444 1704 3306 1728 3205 1696 z M 3458 1287 C 3463 1244 3423 1172 3378 1143 C 3322 1106 3256 1106 3223 1144 C 3198 1173 3192 1227 3210 1260 C 3231 1299 3296 1319 3395 1317 C 3453 1315 3455 1314 3458 1287 z" stroke-linecap="round" />
</g>
		<g transform="matrix(0.13 0 0 -0.13 -119.5 4.18)"  >
<path style="stroke: none; stroke-width: 1; stroke-dasharray: none; stroke-linecap: butt; stroke-dashoffset: 0; stroke-linejoin: miter; stroke-miterlimit: 4; fill: rgb(255,255,255); fill-rule: nonzero; opacity: 1;" vector-effect="non-scaling-stroke"  transform=" translate(-4235.21, -1364.99)" d="M 4280 1694 C 4261 1686 4226 1660 4203 1637 L 4160 1596 L 4160 1631 C 4160 1653 4153 1673 4142 1683 C 4119 1704 4071 1705 4042 1684 C 4020 1669 4020 1668 4020 1361 C 4020 1013 4018 1020 4097 1020 C 4167 1020 4170 1030 4170 1241 C 4170 1420 4171 1428 4196 1478 C 4230 1546 4284 1580 4358 1580 C 4438 1580 4474 1631 4434 1688 C 4422 1706 4410 1710 4367 1710 C 4338 1709 4299 1702 4280 1694 z" stroke-linecap="round" />
</g>
		<g transform="matrix(0.13 0 0 -0.13 -42.13 25.69)"  >
<path style="stroke: none; stroke-width: 1; stroke-dasharray: none; stroke-linecap: butt; stroke-dashoffset: 0; stroke-linejoin: miter; stroke-miterlimit: 4; fill: rgb(255,255,255); fill-rule: nonzero; opacity: 1;" vector-effect="non-scaling-stroke"  transform=" translate(-4817.5, -1199.6)" d="M 4784 1699 C 4767 1694 4733 1672 4708 1650 L 4662 1610 L 4656 1645 C 4648 1683 4626 1700 4582 1700 C 4518 1700 4520 1713 4520 1187 C 4520 726 4521 710 4539 700 C 4564 687 4616 687 4641 700 C 4659 710 4660 723 4660 912 L 4660 1112 L 4699 1077 C 4759 1023 4798 1006 4860 1006 C 4928 1006 4982 1032 5034 1091 C 5103 1166 5115 1206 5115 1360 C 5115 1479 5112 1501 5092 1545 C 5034 1671 4907 1735 4784 1699 z M 4874 1566 C 4892 1558 4920 1535 4936 1514 C 4963 1479 4965 1470 4968 1371 C 4971 1275 4969 1261 4947 1220 C 4916 1162 4851 1125 4795 1136 C 4750 1144 4692 1192 4674 1237 C 4658 1275 4656 1396 4671 1460 C 4693 1555 4785 1603 4874 1566 z" stroke-linecap="round" />
</g>
		<g transform="matrix(0.13 0 0 -0.13 85.57 5.11)"  >
<path style="stroke: none; stroke-width: 1; stroke-dasharray: none; stroke-linecap: butt; stroke-dashoffset: 0; stroke-linejoin: miter; stroke-miterlimit: 4; fill: rgb(255,255,255); fill-rule: nonzero; opacity: 1;" vector-effect="non-scaling-stroke"  transform=" translate(-5774.66, -1357.86)" d="M 5644 1693 C 5616 1685 5580 1668 5565 1656 C 5539 1635 5537 1630 5546 1600 C 5560 1549 5579 1543 5638 1568 C 5703 1596 5793 1598 5836 1571 C 5870 1550 5895 1505 5905 1444 L 5911 1403 L 5803 1397 C 5584 1385 5500 1328 5500 1191 C 5500 1071 5567 1007 5691 1006 C 5760 1006 5799 1023 5878 1086 L 5910 1113 L 5910 1083 C 5910 1044 5938 1020 5983 1020 C 6051 1020 6052 1025 6048 1284 C 6044 1550 6038 1574 5962 1640 C 5887 1707 5761 1728 5644 1693 z M 5900 1270 C 5900 1225 5896 1215 5859 1175 C 5796 1107 5717 1095 5670 1145 C 5653 1163 5649 1178 5652 1215 C 5657 1289 5706 1317 5838 1319 L 5900 1320 L 5900 1270 z" stroke-linecap="round" />
</g>
		<g transform="matrix(0.13 0 0 -0.13 178.87 4.32)"  >
<path style="stroke: none; stroke-width: 1; stroke-dasharray: none; stroke-linecap: butt; stroke-dashoffset: 0; stroke-linejoin: miter; stroke-miterlimit: 4; fill: rgb(255,255,255); fill-rule: nonzero; opacity: 1;" vector-effect="non-scaling-stroke"  transform=" translate(-6475, -1364.03)" d="M 6421 1684 C 6393 1669 6362 1647 6353 1634 C 6331 1600 6320 1604 6320 1645 C 6320 1669 6314 1682 6301 1690 C 6270 1706 6222 1702 6200 1680 C 6181 1661 6180 1647 6180 1362 C 6180 1020 6180 1020 6254 1020 C 6328 1020 6330 1026 6330 1261 C 6330 1490 6336 1515 6399 1557 C 6464 1601 6550 1580 6604 1507 C 6624 1481 6625 1464 6628 1262 C 6631 1021 6631 1020 6698 1020 C 6772 1020 6770 1015 6770 1264 C 6770 1515 6764 1549 6703 1620 C 6628 1707 6518 1732 6421 1684 z" stroke-linecap="round" />
</g>
		<g transform="matrix(0.13 0 0 -0.13 272.19 5.45)"  >
<path style="stroke: none; stroke-width: 1; stroke-dasharray: none; stroke-linecap: butt; stroke-dashoffset: 0; stroke-linejoin: miter; stroke-miterlimit: 4; fill: rgb(255,255,255); fill-rule: nonzero; opacity: 1;" vector-effect="non-scaling-stroke"  transform=" translate(-7174.87, -1355.27)" d="M 7100 1701 C 7017 1674 6943 1613 6903 1538 C 6877 1489 6872 1283 6895 1205 C 6945 1031 7203 947 7390 1043 C 7442 1070 7460 1105 7442 1145 C 7427 1177 7398 1177 7328 1145 C 7203 1086 7055 1137 7029 1247 C 7011 1325 6999 1320 7200 1320 C 7412 1320 7441 1327 7460 1385 C 7495 1491 7430 1620 7310 1681 C 7262 1705 7146 1716 7100 1701 z M 7249 1582 C 7293 1560 7319 1525 7327 1477 C 7337 1414 7327 1410 7169 1410 L 7030 1410 L 7030 1459 C 7030 1498 7036 1515 7057 1541 C 7106 1599 7184 1616 7249 1582 z" stroke-linecap="round" />
</g>
		<g transform="matrix(0.13 0 0 -0.13 353.48 5.55)"  >
<path style="stroke: none; stroke-width: 1; stroke-dasharray: none; stroke-linecap: butt; stroke-dashoffset: 0; stroke-linejoin: miter; stroke-miterlimit: 4; fill: rgb(255,255,255); fill-rule: nonzero; opacity: 1;" vector-effect="non-scaling-stroke"  transform=" translate(-7783.36, -1354.55)" d="M 7698 1699 C 7609 1673 7541 1570 7553 1477 C 7564 1397 7615 1355 7760 1311 C 7837 1287 7864 1273 7884 1249 C 7914 1214 7916 1200 7895 1160 C 7877 1125 7848 1116 7765 1116 C 7715 1116 7693 1123 7643 1150 C 7610 1168 7576 1181 7568 1177 C 7559 1174 7548 1158 7542 1141 C 7533 1116 7535 1107 7552 1085 C 7594 1031 7725 992 7824 1005 C 7956 1022 8030 1094 8030 1205 C 8030 1314 7983 1363 7828 1411 C 7718 1445 7680 1470 7680 1506 C 7680 1585 7782 1624 7885 1584 C 7952 1558 7974 1556 7993 1578 C 8004 1590 8010 1609 8008 1627 C 8003 1671 7932 1702 7822 1706 C 7774 1708 7719 1705 7698 1699 z" stroke-linecap="round" />
</g>
		<g transform="matrix(0.13 0 0 -0.13 545.35 5.52)"  >
<path style="stroke: none; stroke-width: 1; stroke-dasharray: none; stroke-linecap: butt; stroke-dashoffset: 0; stroke-linejoin: miter; stroke-miterlimit: 4; fill: rgb(255,255,255); fill-rule: nonzero; opacity: 1;" vector-effect="non-scaling-stroke"  transform=" translate(-9224.03, -1354.74)" d="M 8950 1692 C 8929 1682 8914 1666 8912 1653 C 8908 1625 9154 1029 9177 1013 C 9199 996 9251 996 9273 1013 C 9298 1031 9542 1630 9536 1656 C 9532 1670 9515 1684 9489 1694 C 9444 1712 9416 1708 9405 1682 C 9401 1673 9363 1572 9319 1457 C 9223 1202 9225 1206 9210 1245 C 9204 1262 9163 1369 9120 1484 C 9077 1599 9035 1697 9028 1701 C 9008 1714 8989 1712 8950 1692 z" stroke-linecap="round" />
</g>
		<g transform="matrix(0.13 0 0 -0.13 632.88 5.26)"  >
<path style="stroke: none; stroke-width: 1; stroke-dasharray: none; stroke-linecap: butt; stroke-dashoffset: 0; stroke-linejoin: miter; stroke-miterlimit: 4; fill: rgb(255,255,255); fill-rule: nonzero; opacity: 1;" vector-effect="non-scaling-stroke"  transform=" translate(-9879.93, -1356.75)" d="M 9792 1695 C 9709 1669 9637 1604 9604 1525 C 9586 1482 9585 1256 9602 1198 C 9617 1146 9682 1075 9739 1045 C 9837 996 9975 990 10070 1031 C 10154 1068 10182 1117 10142 1153 C 10116 1176 10092 1174 10025 1144 C 9979 1123 9957 1119 9912 1122 C 9802 1130 9741 1181 9732 1271 L 9728 1319 L 9925 1322 L 10122 1325 L 10146 1353 C 10166 1376 10170 1392 10170 1444 C 10170 1628 9980 1754 9792 1695 z M 9950 1584 C 9974 1574 9998 1555 10010 1535 C 10031 1501 10039 1443 10026 1422 C 10021 1414 9973 1410 9874 1410 L 9730 1410 L 9730 1448 C 9730 1504 9760 1551 9810 1578 C 9862 1604 9895 1606 9950 1584 z" stroke-linecap="round" />
</g>
		<g transform="matrix(0.13 0 0 -0.13 -175.71 4.9)"  >
<path style="stroke: none; stroke-width: 1; stroke-dasharray: none; stroke-linecap: butt; stroke-dashoffset: 0; stroke-linejoin: miter; stroke-miterlimit: 4; fill: rgb(255,255,255); fill-rule: nonzero; opacity: 1;" vector-effect="non-scaling-stroke"  transform=" translate(-3810, -1359.73)" d="M 3758 1689 C 3741 1680 3740 1653 3740 1360 C 3740 1055 3741 1040 3759 1030 C 3784 1017 3836 1017 3861 1030 C 3879 1040 3880 1055 3880 1357 C 3880 1646 3879 1674 3863 1686 C 3842 1702 3782 1704 3758 1689 z" stroke-linecap="round" />
</g>
		<g transform="matrix(0.13 0 0 -0.13 484.94 4.86)"  >
<path style="stroke: none; stroke-width: 1; stroke-dasharray: none; stroke-linecap: butt; stroke-dashoffset: 0; stroke-linejoin: miter; stroke-miterlimit: 4; fill: rgb(255,255,255); fill-rule: nonzero; opacity: 1;" vector-effect="non-scaling-stroke"  transform=" translate(-8765, -1360.07)" d="M 8707 1682 C 8692 1666 8690 1628 8690 1357 C 8690 1014 8689 1020 8761 1020 C 8787 1020 8807 1027 8820 1040 C 8839 1059 8840 1073 8840 1360 C 8840 1647 8839 1661 8820 1680 C 8794 1706 8730 1707 8707 1682 z" stroke-linecap="round" />
</g>
		<g transform="matrix(0.13 0 0 -0.13 408.32 41.73)"  >
<path style="stroke: none; stroke-width: 1; stroke-dasharray: none; stroke-linecap: butt; stroke-dashoffset: 0; stroke-linejoin: miter; stroke-miterlimit: 4; fill: rgb(255,255,255); fill-rule: nonzero; opacity: 1;" vector-effect="non-scaling-stroke"  transform=" translate(-8190.42, -1090)" d="M 8137 1142 C 8101 1104 8102 1069 8141 1036 C 8158 1022 8181 1010 8192 1010 C 8218 1010 8270 1063 8270 1090 C 8270 1119 8217 1170 8188 1170 C 8174 1170 8152 1157 8137 1142 z" stroke-linecap="round" />
</g>
</g>
</g>
</svg>